<svg id="logo" alt="Site logo" xmlns="http://www.w3.org/2000/svg" viewBox="0 0 657.98 837"><defs><style>.logo-cls-1{fill: #8f1421;fill: #DD0048; transition: 500ms cubic-bezier(.18,.89,.32,1.48);}.logo-cls-2{fill:#1a1a1a;}</style></defs><title>NNN_logo_gp</title><path class="logo-cls-1" d="M162.09,641V283.09h48.58l188,281v-281h45.41V641H395.48l-188-281.25V641Z" transform="translate(-162.09 -24)"/><path class="logo-cls-1" d="M538.09,641V283.09h48.58l188,281v-281h45.41V641H771.48l-188-281.25V641Z" transform="translate(-162.09 -24)"/><path class="logo-cls-2" d="M270,471q7-135.53,13.93-271h68.79L628,646a1533.93,1533.93,0,0,0,21-195c6-137.21,9.09-209.09-30-281-16.68-30.69-61.91-99.76-176-146,30.61,3.05,113.89,15.69,175,83,42.47,46.78,56,99.91,66,139a424.73,424.73,0,0,1,12,135L683.22,706.76h-68.8L340,282c-6.66,48.07-14.61,118-18,203-3.79,95.18-5.42,143.59,8,184,35.45,106.78,149.35,164,227,192-27.76-2.28-192.16-17.92-250-128-22-41.94-29.82-99.89-34-131A594.79,594.79,0,0,1,270,471Z" transform="translate(-162.09 -24)"/></svg>